<?xml version="1.0" encoding="utf-8"?>
<!-- Generator: Adobe Illustrator 17.0.0, SVG Export Plug-In . SVG Version: 6.00 Build 0)  -->
<!DOCTYPE svg PUBLIC "-//W3C//DTD SVG 1.1//EN" "http://www.w3.org/Graphics/SVG/1.1/DTD/svg11.dtd">
<svg version="1.1" id="Isolation_Mode" xmlns="http://www.w3.org/2000/svg" xmlns:xlink="http://www.w3.org/1999/xlink" x="0px"
	 y="0px" width="612px" height="248.804px" viewBox="0 0 612 248.804" enable-background="new 0 0 612 248.804"
	 xml:space="preserve">
<path fill="none" stroke="#FFFFFF" stroke-width="2" stroke-miterlimit="10" d="M564.74,186.446
	c0,12.486-10.121,22.611-22.605,22.611H75.87c-12.486,0-22.61-10.125-22.61-22.611V64.357c0-12.486,10.125-22.61,22.61-22.61
	h466.264c12.484,0,22.605,10.125,22.605,22.61V186.446z"/>
<g>
	<path fill="#F9F9F9" d="M451.318,152.318c-2.146,0-4.104-0.396-5.877-1.187c-1.773-0.792-3.263-2.01-4.466-3.652h-0.36
		c0.24,1.924,0.36,3.749,0.36,5.472v13.559h-4.988v-47.743h4.058l0.69,4.51h0.24c1.284-1.804,2.778-3.106,4.481-3.909
		c1.703-0.801,3.658-1.203,5.861-1.203c4.37,0,7.743,1.494,10.117,4.48c2.375,2.987,3.564,7.176,3.564,12.567
		c0,5.412-1.208,9.615-3.621,12.614C458.961,150.82,455.609,152.318,451.318,152.318z M450.596,122.404
		c-3.367,0-5.802,0.932-7.305,2.796c-1.503,1.864-2.275,4.831-2.316,8.9v1.111c0,4.63,0.772,7.943,2.316,9.938
		c1.544,1.994,4.02,2.991,7.425,2.991c2.848,0,5.078-1.152,6.692-3.457c1.612-2.304,2.419-5.481,2.419-9.532
		c0-4.108-0.807-7.261-2.419-9.455C455.795,123.501,453.523,122.404,450.596,122.404z"/>
	<path fill="#F9F9F9" d="M476.553,151.716h-4.99v-46.78h4.99V151.716z"/>
	<path fill="#F9F9F9" d="M505.246,151.716l-0.993-4.69h-0.24c-1.644,2.066-3.282,3.464-4.916,4.194
		c-1.633,0.733-3.673,1.098-6.117,1.098c-3.267,0-5.827-0.842-7.682-2.525c-1.854-1.684-2.781-4.077-2.781-7.185
		c0-6.653,5.322-10.141,15.964-10.463l5.594-0.181v-2.044c0-2.586-0.557-4.496-1.67-5.727c-1.111-1.234-2.893-1.85-5.336-1.85
		c-2.747,0-5.854,0.842-9.32,2.525l-1.534-3.818c1.625-0.881,3.402-1.573,5.338-2.074c1.934-0.501,3.872-0.752,5.817-0.752
		c3.928,0,6.839,0.872,8.734,2.616c1.893,1.744,2.84,4.54,2.84,8.388v22.488H505.246z M493.972,148.2
		c3.105,0,5.545-0.852,7.32-2.554c1.772-1.703,2.661-4.089,2.661-7.158v-2.976l-4.993,0.21c-3.968,0.142-6.827,0.756-8.583,1.851
		c-1.753,1.092-2.63,2.791-2.63,5.096c0,1.804,0.545,3.177,1.639,4.118C490.479,147.729,492.006,148.2,493.972,148.2z"/>
	<path fill="#F9F9F9" d="M511.841,118.766h5.35l7.216,18.79c1.583,4.291,2.566,7.386,2.948,9.292h0.24
		c0.261-1.024,0.808-2.772,1.638-5.249c0.832-2.475,3.554-10.085,8.162-22.833h5.354l-14.162,37.52
		c-1.402,3.709-3.041,6.339-4.917,7.895c-1.873,1.552-4.174,2.328-6.897,2.328c-1.524,0-3.027-0.171-4.512-0.51v-3.998
		c1.102,0.24,2.336,0.361,3.699,0.361c3.428,0,5.871-1.924,7.336-5.773l1.833-4.69L511.841,118.766z"/>
</g>
<g>
	<path fill="#F9F9F9" d="M358.869,121.828c1.584,1.311,4.892,4.066,4.892,9.306c0,5.097-2.895,7.514-5.79,9.785
		c-0.897,0.894-1.93,1.864-1.93,3.381c0,1.513,1.033,2.341,1.794,2.962l2.482,1.926c3.032,2.551,5.786,4.896,5.786,9.654
		c0,6.477-6.272,13.023-18.124,13.023c-9.995,0-14.817-4.754-14.817-9.858c0-2.481,1.235-5.994,5.307-8.409
		c4.27-2.619,10.063-2.96,13.163-3.171c-0.968-1.24-2.068-2.549-2.068-4.683c0-1.169,0.346-1.86,0.689-2.69
		c-0.761,0.07-1.518,0.138-2.208,0.138c-7.303,0-11.439-5.445-11.439-10.817c0-3.171,1.449-6.688,4.409-9.236
		c3.93-3.239,8.616-3.792,12.341-3.792h14.194l-4.411,2.481H358.869z M353.974,152.43c-0.551-0.072-0.898-0.072-1.583-0.072
		c-0.62,0-4.347,0.14-7.238,1.108c-1.516,0.547-5.928,2.201-5.928,7.097c0,4.89,4.758,8.411,12.133,8.411
		c6.612,0,10.131-3.177,10.131-7.447C361.489,158.007,359.214,156.153,353.974,152.43z M355.974,139.334
		c1.583-1.587,1.719-3.79,1.719-5.032c0-4.962-2.962-12.681-8.681-12.681c-1.794,0-3.722,0.895-4.825,2.275
		c-1.17,1.448-1.518,3.306-1.518,5.101c0,4.616,2.689,12.267,8.618,12.267C353.01,141.264,354.867,140.437,355.974,139.334z"/>
	<path fill="#F9F9F9" d="M315.48,151.327c-10.939,0-16.788-8.533-16.788-16.241c0-9.015,7.361-16.718,17.824-16.718
		c10.11,0,16.441,7.911,16.441,16.239C332.958,142.722,326.699,151.327,315.48,151.327z M324.08,145.754
		c1.654-2.204,2.067-4.954,2.067-7.641c0-6.056-2.89-17.614-11.423-17.614c-2.27,0-4.54,0.896-6.191,2.343
		c-2.684,2.405-3.168,5.434-3.168,8.396c0,6.807,3.372,18.021,11.7,18.021C319.748,149.259,322.501,147.954,324.08,145.754z"/>
	<path fill="#F9F9F9" d="M278.185,151.327c-10.941,0-16.79-8.533-16.79-16.241c0-9.015,7.364-16.718,17.824-16.718
		c10.114,0,16.444,7.911,16.444,16.239C295.662,142.722,289.402,151.327,278.185,151.327z M286.786,145.754
		c1.652-2.204,2.066-4.954,2.066-7.641c0-6.056-2.892-17.614-11.425-17.614c-2.268,0-4.541,0.896-6.191,2.343
		c-2.684,2.405-3.165,5.434-3.165,8.396c0,6.807,3.37,18.021,11.699,18.021C282.454,149.259,285.204,147.954,286.786,145.754z"/>
	<path fill="#F9F9F9" d="M256.138,150.248l-9.894,2.283c-4.014,0.624-7.61,1.173-11.413,1.173
		c-19.096,0-26.357-14.044-26.357-25.044c0-13.419,10.306-25.869,27.949-25.869c3.737,0,7.331,0.552,10.582,1.452
		c5.188,1.453,7.609,3.249,9.132,4.289l-5.744,5.466l-2.42,0.551l1.73-2.769c-2.351-2.281-6.644-6.499-14.804-6.499
		c-10.931,0-19.165,8.304-19.165,20.409c0,13.002,9.41,25.248,24.488,25.248c4.432,0,6.711-0.898,8.787-1.73v-11.136l-10.444,0.553
		l5.532-2.978h14.667l-1.797,1.729c-0.488,0.417-0.555,0.557-0.693,1.105c-0.072,0.624-0.137,2.632-0.137,3.323V150.248z"/>
	<path fill="#F9F9F9" d="M380.734,148.256c-2.284-0.208-2.762-0.621-2.762-3.323v-0.761V105.78c0.014-0.149,0.023-0.302,0.037-0.446
		c0.279-2.42,0.97-2.835,3.117-4.082h-9.897l-5.19,2.491h5.289v0.032l-0.004-0.025v40.424v2.285c0,1.381-0.273,1.59-1.866,3.664
		h12.246l2.559-1.519C383.09,148.462,381.912,148.394,380.734,148.256z"/>
	<path fill="#F9F9F9" d="M408.884,148.892c-0.753,0.414-1.509,0.896-2.262,1.238c-2.272,1.03-4.607,1.305-6.671,1.305
		c-2.193,0-5.631-0.142-9.138-2.681c-4.874-3.437-7.004-9.345-7.004-14.497c0-10.647,8.656-15.868,15.732-15.868
		c2.474,0,5.018,0.617,7.08,1.924c3.432,2.263,4.325,5.217,4.803,6.797l-16.141,6.529l-5.291,0.413
		c1.715,8.725,7.623,13.805,14.152,13.805c3.503,0,6.046-1.235,8.381-2.401L408.884,148.892z M402.428,128.417
		c1.303-0.48,1.99-0.893,1.99-1.853c0-2.747-3.09-5.909-6.803-5.909c-2.751,0-7.9,2.131-7.9,9.55c0,1.168,0.138,2.404,0.209,3.644
		L402.428,128.417z"/>
	<g>
		<path fill="#F9F9F9" d="M415.515,118.859v4.533h-0.551v-4.533h-1.5v-0.469h3.55v0.469H415.515z"/>
		<path fill="#F9F9F9" d="M421.695,123.392v-4.576h-0.025l-1.396,4.576h-0.431l-1.408-4.576h-0.018v4.576h-0.5v-5.002h0.857
			l1.274,4.043h0.018l1.255-4.043h0.869v5.002H421.695z"/>
	</g>
</g>
<g>
	<path fill="#F9F9FA" d="M222.214,89.322h-3.438c0-0.473-0.326-1.812-0.978-4.018h-4.963c-0.673,2.17-1.01,3.509-1.01,4.018h-3.233
		c0-0.279,0.836-2.571,2.508-6.875c1.672-4.304,2.508-6.674,2.508-7.111h4.061c0,0.408,0.757,2.745,2.272,7.009
		C221.457,86.609,222.214,88.935,222.214,89.322z M217.251,83.252c-1.225-3.695-1.837-5.693-1.837-5.994h-0.172
		c0,0.279-0.634,2.277-1.901,5.994H217.251z"/>
	<path fill="#F9F9FA" d="M236.066,89.322h-2.653c0-0.294-0.985-1.844-2.954-4.651c-2.062-2.957-3.237-4.98-3.523-6.069h-0.172
		c0.179,1.568,0.268,2.986,0.268,4.254c0,1.769,0.05,3.925,0.15,6.467h-2.643c0.107-2.22,0.161-4.658,0.161-7.315
		c0-2.614-0.054-4.838-0.161-6.671h3.19c0,0.38,0.884,1.895,2.653,4.544c1.883,2.815,2.965,4.723,3.244,5.726h0.161
		c-0.172-1.597-0.258-3.029-0.258-4.297c0-1.94-0.05-3.932-0.15-5.973h2.686c-0.101,1.776-0.15,4-0.15,6.671
		C235.915,84.699,235.965,87.138,236.066,89.322z"/>
	<path fill="#F9F9FA" d="M251.635,81.845c0,2.034-0.652,3.81-1.955,5.328c-1.304,1.519-3.13,2.277-5.479,2.277
		c-1.06,0-2.521-0.043-4.383-0.129c0.093-2.163,0.14-4.601,0.14-7.315c0-2.607-0.047-4.83-0.14-6.671h1.88
		c0.308,0,0.766-0.011,1.375-0.032c0.608-0.021,1.006-0.032,1.192-0.032c2.585,0,4.46,0.645,5.623,1.934
		C251.053,78.494,251.635,80.041,251.635,81.845z M248.703,82.307c0-1.375-0.401-2.533-1.203-3.475
		c-0.802-0.941-2.027-1.413-3.674-1.413c-0.308,0-0.73,0.032-1.268,0.097c0.071,1.433,0.107,2.929,0.107,4.49
		c0,1.712,0.036,3.409,0.107,5.092c0.465,0.093,0.931,0.14,1.396,0.14c1.54,0,2.68-0.478,3.421-1.434
		C248.332,84.848,248.703,83.682,248.703,82.307z"/>
	<path fill="#F9F9FA" d="M265.992,89.322h-3.18c-0.831-2.535-1.468-4.1-1.912-4.694c-0.444-0.594-1.16-0.892-2.148-0.892
		c-0.416,0-0.813,0.004-1.192,0.011c0,1.841,0.032,3.699,0.097,5.575h-2.986c0.093-2.163,0.14-4.601,0.14-7.315
		c0-2.607-0.047-4.83-0.14-6.671h1.858c0.215,0,0.664-0.011,1.348-0.032c0.684-0.021,1.316-0.032,1.896-0.032
		c3.287,0,4.931,1.125,4.931,3.373c0,1.783-0.939,3.026-2.814,3.728v0.161c0.723,0.201,1.357,0.765,1.901,1.692
		C264.334,85.152,265.068,86.851,265.992,89.322z M261.964,79.439c0-1.425-0.917-2.138-2.75-2.138c-0.673,0-1.268,0.05-1.783,0.15
		c0.079,1.11,0.118,2.557,0.118,4.34c0.394,0.015,0.727,0.021,0.999,0.021C260.825,81.813,261.964,81.022,261.964,79.439z"/>
	<path fill="#F9F9FA" d="M281.39,82.071c0,2.199-0.673,4.021-2.02,5.468c-1.347,1.447-3.012,2.17-4.995,2.17
		c-1.891,0-3.474-0.664-4.748-1.993c-1.275-1.328-1.912-3.017-1.912-5.065c0-2.198,0.673-4.021,2.02-5.468
		c1.346-1.446,3.011-2.17,4.995-2.17c1.891,0,3.473,0.663,4.748,1.987C280.753,78.326,281.39,80.016,281.39,82.071z M278.426,82.382
		c0-1.497-0.383-2.71-1.149-3.642c-0.767-0.931-1.712-1.396-2.836-1.396c-1.046,0-1.934,0.469-2.664,1.407
		c-0.73,0.938-1.096,2.124-1.096,3.556c0,1.49,0.385,2.702,1.155,3.636c0.77,0.935,1.713,1.402,2.831,1.402
		c1.045,0,1.934-0.471,2.664-1.413C278.06,84.991,278.426,83.808,278.426,82.382z"/>
	<path fill="#F9F9FA" d="M287.464,89.322h-3.04c0.093-2.22,0.14-4.658,0.14-7.315c0-2.614-0.047-4.838-0.14-6.671h3.04
		c-0.093,1.805-0.14,4.028-0.14,6.671C287.324,84.707,287.371,87.145,287.464,89.322z"/>
	<path fill="#F9F9FA" d="M303.034,81.845c0,2.034-0.652,3.81-1.955,5.328c-1.304,1.519-3.13,2.277-5.478,2.277
		c-1.06,0-2.521-0.043-4.383-0.129c0.093-2.163,0.14-4.601,0.14-7.315c0-2.607-0.047-4.83-0.14-6.671h1.88
		c0.308,0,0.766-0.011,1.375-0.032c0.608-0.021,1.006-0.032,1.192-0.032c2.585,0,4.46,0.645,5.624,1.934
		C302.452,78.494,303.034,80.041,303.034,81.845z M300.102,82.307c0-1.375-0.401-2.533-1.203-3.475
		c-0.802-0.941-2.027-1.413-3.674-1.413c-0.308,0-0.73,0.032-1.268,0.097c0.071,1.433,0.107,2.929,0.107,4.49
		c0,1.712,0.036,3.409,0.107,5.092c0.465,0.093,0.931,0.14,1.396,0.14c1.54,0,2.68-0.478,3.421-1.434
		C299.731,84.848,300.102,83.682,300.102,82.307z"/>
	<path fill="#F9F9FA" d="M323.69,89.322h-3.438c0-0.473-0.326-1.812-0.979-4.018h-4.963c-0.673,2.17-1.01,3.509-1.01,4.018h-3.232
		c0-0.279,0.836-2.571,2.508-6.875c1.672-4.304,2.508-6.674,2.508-7.111h4.061c0,0.408,0.758,2.745,2.272,7.009
		C322.932,86.609,323.69,88.935,323.69,89.322z M318.727,83.252c-1.225-3.695-1.838-5.693-1.838-5.994h-0.172
		c0,0.279-0.633,2.277-1.9,5.994H318.727z"/>
	<path fill="#F9F9FA" d="M336.22,78.999c0,1.712-0.636,2.976-1.907,3.792c-1.271,0.816-2.83,1.225-4.678,1.225
		c-0.337,0-0.576-0.007-0.72-0.021c0,1.347,0.039,3.122,0.118,5.328h-3.019c0.093-2.069,0.14-4.508,0.14-7.315
		c0-2.578-0.047-4.802-0.14-6.671h1.869c0.265,0,0.773-0.011,1.525-0.032c0.752-0.021,1.403-0.032,1.955-0.032
		c1.36,0,2.51,0.308,3.448,0.924C335.752,76.811,336.22,77.746,336.22,78.999z M333.449,79.589c0-1.532-1.017-2.299-3.051-2.299
		c-0.509,0-1.046,0.054-1.611,0.161c0.079,1.354,0.118,2.886,0.118,4.598c0.179,0.015,0.387,0.021,0.623,0.021
		C332.142,82.071,333.449,81.244,333.449,79.589z"/>
	<path fill="#F9F9FA" d="M349.104,78.999c0,1.712-0.636,2.976-1.906,3.792c-1.271,0.816-2.831,1.225-4.679,1.225
		c-0.337,0-0.576-0.007-0.72-0.021c0,1.347,0.039,3.122,0.118,5.328h-3.019c0.093-2.069,0.14-4.508,0.14-7.315
		c0-2.578-0.047-4.802-0.14-6.671h1.869c0.265,0,0.773-0.011,1.525-0.032c0.752-0.021,1.403-0.032,1.955-0.032
		c1.36,0,2.51,0.308,3.448,0.924C348.635,76.811,349.104,77.746,349.104,78.999z M346.333,79.589c0-1.532-1.017-2.299-3.051-2.299
		c-0.509,0-1.046,0.054-1.611,0.161c0.079,1.354,0.118,2.886,0.118,4.598c0.179,0.015,0.387,0.021,0.623,0.021
		C345.026,82.071,346.333,81.244,346.333,79.589z"/>
	<path fill="#F9F9FA" d="M370.169,82.071c0,2.199-0.673,4.021-2.02,5.468c-1.347,1.447-3.012,2.17-4.995,2.17
		c-1.891,0-3.474-0.664-4.748-1.993c-1.274-1.328-1.912-3.017-1.912-5.065c0-2.198,0.673-4.021,2.02-5.468
		c1.347-1.446,3.012-2.17,4.995-2.17c1.891,0,3.474,0.663,4.748,1.987C369.531,78.326,370.169,80.016,370.169,82.071z
		 M367.204,82.382c0-1.497-0.383-2.71-1.149-3.642c-0.767-0.931-1.712-1.396-2.836-1.396c-1.046,0-1.934,0.469-2.664,1.407
		c-0.73,0.938-1.096,2.124-1.096,3.556c0,1.49,0.385,2.702,1.155,3.636c0.77,0.935,1.713,1.402,2.83,1.402
		c1.046,0,1.934-0.471,2.664-1.413C366.839,84.991,367.204,83.808,367.204,82.382z"/>
	<path fill="#F9F9FA" d="M384.729,89.322h-2.653c0-0.294-0.984-1.844-2.954-4.651c-2.062-2.957-3.237-4.98-3.523-6.069h-0.172
		c0.179,1.568,0.268,2.986,0.268,4.254c0,1.769,0.05,3.925,0.15,6.467h-2.643c0.107-2.22,0.161-4.658,0.161-7.315
		c0-2.614-0.054-4.838-0.161-6.671h3.19c0,0.38,0.885,1.895,2.653,4.544c1.884,2.815,2.965,4.723,3.244,5.726h0.161
		c-0.172-1.597-0.258-3.029-0.258-4.297c0-1.94-0.05-3.932-0.15-5.973h2.686c-0.101,1.776-0.15,4-0.15,6.671
		C384.579,84.699,384.629,87.138,384.729,89.322z"/>
</g>
<g>
	<path fill="#FFFFFF" d="M90.242,81.583c-0.259,0.91-0.436,1.891-0.436,3.012v92.212c0,1.104,0.177,2.075,0.426,2.975l51.754-49.031
		C141.985,130.751,90.242,81.583,90.242,81.583z"/>
	<path fill="#FFFFFF" d="M162.182,111.614l-60.426-33.612c-2.409-1.465-4.781-1.836-6.784-1.325l51.972,49.382L162.182,111.614z"/>
	<path fill="#FFFFFF" d="M184.461,124.007l-16.128-8.972l-16.52,15.647l16.826,15.995l15.692-8.618
		C191.991,133.695,189.197,126.669,184.461,124.007z"/>
	<path fill="#FFFFFF" d="M94.818,184.669c2.034,0.569,4.464,0.228,6.934-1.275l60.61-33.278l-15.515-14.741
		C146.848,135.375,94.818,184.669,94.818,184.669z"/>
</g>
</svg>
