<?xml version="1.0" encoding="utf-8"?>
<!-- Generator: Adobe Illustrator 17.0.0, SVG Export Plug-In . SVG Version: 6.00 Build 0)  -->
<!DOCTYPE svg PUBLIC "-//W3C//DTD SVG 1.1//EN" "http://www.w3.org/Graphics/SVG/1.1/DTD/svg11.dtd">
<svg version="1.1" id="Isolation_Mode" xmlns="http://www.w3.org/2000/svg" xmlns:xlink="http://www.w3.org/1999/xlink" x="0px"
	 y="0px" width="612px" height="248.804px" viewBox="0 0 612 248.804" enable-background="new 0 0 612 248.804"
	 xml:space="preserve">
<g>
	<path fill="none" stroke="#FFFFFF" stroke-width="2" stroke-miterlimit="10" d="M557.086,186.549
		c0,12.486-10.121,22.611-22.605,22.611H68.216c-12.486,0-22.61-10.125-22.61-22.611V64.46c0-12.486,10.125-22.61,22.61-22.61
		H534.48c12.484,0,22.605,10.125,22.605,22.61V186.549z"/>
	<path fill="#FFFFFF" d="M133.942,70.462H92.279c-4.992,0-9.041,4.046-9.041,9.041v92.304c0,4.995,4.049,9.044,9.041,9.044h41.663
		c4.996,0,9.046-4.049,9.046-9.044V79.503C142.988,74.508,138.938,70.462,133.942,70.462z M113.111,174.212
		c-3.325,0-6.021-2.695-6.021-6.024c0-3.325,2.695-6.021,6.021-6.021c3.329,0,6.024,2.695,6.024,6.021
		C119.135,171.517,116.44,174.212,113.111,174.212z M135.885,159.234H90.338V91.149h45.547V159.234z"/>
	<g>
		<path fill="#FFFFFF" d="M177.11,86.914l-2.532,7.668h-3.256l8.284-24.386h3.8l8.32,24.386h-3.365l-2.604-7.668H177.11z
			 M185.104,84.455l-2.423-7.02c-0.507-1.594-0.87-3.04-1.231-4.449h-0.106c-0.326,1.41-0.725,2.931-1.195,4.413l-2.387,7.057
			H185.104z"/>
		<path fill="#FFFFFF" d="M194.983,77.072l3.437,9.807c0.58,1.626,1.051,3.075,1.413,4.521h0.108
			c0.398-1.445,0.902-2.895,1.482-4.521l3.402-9.807h3.329l-6.876,17.511h-3.04l-6.653-17.511H194.983z"/>
		<path fill="#FFFFFF" d="M222.804,90.388c0,1.517,0.074,2.999,0.255,4.194h-2.858l-0.291-2.206h-0.107
			c-0.938,1.376-2.858,2.604-5.355,2.604c-3.546,0-5.353-2.495-5.353-5.027c0-4.235,3.763-6.549,10.526-6.514v-0.362
			c0-1.445-0.399-4.09-3.978-4.05c-1.667,0-3.364,0.467-4.596,1.3l-0.726-2.137c1.45-0.902,3.584-1.517,5.79-1.517
			c5.394,0,6.693,3.654,6.693,7.165V90.388z M219.693,85.647c-3.474-0.072-7.414,0.543-7.414,3.944c0,2.097,1.372,3.039,2.963,3.039
			c2.318,0,3.799-1.448,4.307-2.93c0.108-0.327,0.144-0.688,0.144-1.015V85.647z"/>
		<path fill="#FFFFFF" d="M229.241,73.852c-1.191,0-1.988-0.938-1.988-2.062c0-1.122,0.833-2.024,2.062-2.024
			c1.232,0,2.028,0.902,2.028,2.024c0,1.124-0.796,2.062-2.061,2.062H229.241z M227.724,94.583V77.072h3.184v17.511H227.724z"/>
		<path fill="#FFFFFF" d="M236.008,68.897h3.184v25.686h-3.184V68.897z"/>
		<path fill="#FFFFFF" d="M256.63,90.388c0,1.517,0.073,2.999,0.253,4.194h-2.861l-0.289-2.206h-0.106
			c-0.941,1.376-2.858,2.604-5.357,2.604c-3.542,0-5.353-2.495-5.353-5.027c0-4.235,3.763-6.549,10.53-6.514v-0.362
			c0-1.445-0.4-4.09-3.983-4.05c-1.662,0-3.365,0.467-4.591,1.3l-0.727-2.137c1.447-0.902,3.584-1.517,5.79-1.517
			c5.39,0,6.693,3.654,6.693,7.165V90.388z M253.518,85.647c-3.474-0.072-7.419,0.543-7.419,3.944c0,2.097,1.376,3.039,2.968,3.039
			c2.317,0,3.799-1.448,4.306-2.93c0.11-0.327,0.145-0.688,0.145-1.015V85.647z"/>
		<path fill="#FFFFFF" d="M261.546,68.897h3.185v10.961h0.075c1.12-1.953,3.145-3.184,5.966-3.184c4.344,0,7.383,3.619,7.383,8.9
			c0,6.295-3.981,9.406-7.886,9.406c-2.531,0-4.524-0.978-5.859-3.293h-0.077l-0.181,2.895h-2.745
			c0.108-1.196,0.141-2.966,0.141-4.521V68.897z M264.73,87.567c0,0.394,0.037,0.793,0.112,1.155
			c0.612,2.206,2.496,3.727,4.773,3.727c3.366,0,5.317-2.712,5.317-6.73c0-3.546-1.808-6.545-5.208-6.545
			c-2.17,0-4.2,1.518-4.814,3.905c-0.106,0.399-0.181,0.833-0.181,1.34V87.567z"/>
		<path fill="#FFFFFF" d="M281.95,68.897h3.183v25.686h-3.183V68.897z"/>
		<path fill="#FFFFFF" d="M292.042,86.371c0.071,4.306,2.784,6.078,5.97,6.078c2.282,0,3.69-0.398,4.849-0.869l0.576,2.243
			c-1.119,0.506-3.075,1.122-5.86,1.122c-5.354,0-8.61-3.582-8.61-8.827c0-5.318,3.147-9.48,8.252-9.48
			c5.71,0,7.197,5.031,7.197,8.248c0,0.652-0.037,1.159-0.109,1.521L292.042,86.371z M301.34,84.092
			c0.035-1.992-0.834-5.176-4.38-5.176c-3.251,0-4.629,2.967-4.883,5.176H301.34z"/>
		<path fill="#FFFFFF" d="M322.793,94.981c-4.703,0-8.395-3.473-8.395-9.009c0-5.861,3.873-9.298,8.684-9.298
			c5.027,0,8.428,3.654,8.428,8.972c0,6.513-4.523,9.335-8.682,9.335H322.793z M322.9,92.594c3.039,0,5.316-2.858,5.316-6.839
			c0-2.966-1.48-6.694-5.244-6.694c-3.729,0-5.354,3.474-5.354,6.803c0,3.836,2.17,6.73,5.246,6.73H322.9z"/>
		<path fill="#FFFFFF" d="M335.347,81.815c0-1.848-0.041-3.293-0.15-4.743h2.824l0.18,2.858h0.072
			c0.869-1.626,2.895-3.255,5.787-3.255c2.424,0,6.193,1.449,6.193,7.454v10.454h-3.189V84.487c0-2.818-1.047-5.208-4.053-5.208
			c-2.062,0-3.688,1.485-4.268,3.257c-0.145,0.398-0.217,0.978-0.217,1.485v10.562h-3.18V81.815z"/>
		<path fill="#FFFFFF" d="M366.564,72.878v4.194h4.555v2.424h-4.555v9.443c0,2.17,0.615,3.401,2.385,3.401
			c0.871,0,1.379-0.072,1.85-0.217l0.141,2.423c-0.611,0.217-1.59,0.435-2.818,0.435c-1.488,0-2.682-0.507-3.441-1.336
			c-0.865-0.979-1.228-2.536-1.228-4.598v-9.552h-2.711v-2.424h2.711v-3.22L366.564,72.878z"/>
		<path fill="#FFFFFF" d="M374.521,68.897h3.184v10.924h0.07c0.506-0.905,1.303-1.734,2.281-2.242
			c0.941-0.58,2.061-0.905,3.258-0.905c2.35,0,6.109,1.449,6.109,7.49v10.418h-3.18V84.527c0-2.858-1.051-5.212-4.055-5.212
			c-2.061,0-3.652,1.449-4.266,3.184c-0.182,0.435-0.219,0.906-0.219,1.521v10.562h-3.184V68.897z"/>
		<path fill="#FFFFFF" d="M396.226,86.371c0.072,4.306,2.785,6.078,5.969,6.078c2.279,0,3.691-0.398,4.852-0.869l0.576,2.243
			c-1.123,0.506-3.076,1.122-5.863,1.122c-5.352,0-8.609-3.582-8.609-8.827c0-5.318,3.148-9.48,8.25-9.48
			c5.715,0,7.201,5.031,7.201,8.248c0,0.652-0.037,1.159-0.109,1.521L396.226,86.371z M405.525,84.092
			c0.031-1.992-0.834-5.176-4.379-5.176c-3.254,0-4.635,2.967-4.885,5.176H405.525z"/>
		<path fill="#FFFFFF" d="M421.371,73.852c-1.197,0-1.994-0.938-1.994-2.062c0-1.122,0.832-2.024,2.064-2.024
			c1.229,0,2.025,0.902,2.025,2.024c0,1.124-0.797,2.062-2.066,2.062H421.371z M419.847,94.583V77.072h3.184v17.511H419.847z"/>
		<path fill="#FFFFFF" d="M428.24,70.523c1.518-0.286,3.51-0.506,6.043-0.506c3.109,0,5.391,0.724,6.834,2.029
			c1.34,1.155,2.174,2.93,2.174,5.1c0,2.206-0.652,3.945-1.92,5.208c-1.662,1.775-4.377,2.677-7.451,2.677
			c-0.938,0-1.807-0.037-2.531-0.214v9.766h-3.148V70.523z M431.388,82.245c0.685,0.182,1.594,0.254,2.605,0.254
			c3.834,0,6.113-1.879,6.113-5.172c0-3.256-2.279-4.811-5.752-4.811c-1.373,0-2.422,0.142-2.967,0.253V82.245z"/>
		<path fill="#FFFFFF" d="M447.017,68.897h3.186v10.924h0.072c0.506-0.905,1.303-1.734,2.277-2.242
			c0.943-0.58,2.066-0.905,3.258-0.905c2.352,0,6.113,1.449,6.113,7.49v10.418h-3.182V84.527c0-2.858-1.051-5.212-4.055-5.212
			c-2.059,0-3.65,1.449-4.268,3.184c-0.182,0.435-0.217,0.906-0.217,1.521v10.562h-3.186V68.897z"/>
		<path fill="#FFFFFF" d="M474.043,94.981c-4.703,0-8.395-3.473-8.395-9.009c0-5.861,3.873-9.298,8.686-9.298
			c5.027,0,8.426,3.654,8.426,8.972c0,6.513-4.522,9.335-8.68,9.335H474.043z M474.154,92.594c3.033,0,5.316-2.858,5.316-6.839
			c0-2.966-1.482-6.694-5.248-6.694c-3.725,0-5.355,3.474-5.355,6.803c0,3.836,2.17,6.73,5.246,6.73H474.154z"/>
		<path fill="#FFFFFF" d="M486.595,81.815c0-1.848-0.037-3.293-0.145-4.743h2.822l0.18,2.858h0.074
			c0.869-1.626,2.895-3.255,5.787-3.255c2.424,0,6.184,1.449,6.184,7.454v10.454h-3.18V84.487c0-2.818-1.051-5.208-4.055-5.208
			c-2.061,0-3.688,1.485-4.266,3.257c-0.146,0.398-0.223,0.978-0.223,1.485v10.562h-3.18V81.815z"/>
		<path fill="#FFFFFF" d="M508.301,86.371c0.072,4.306,2.787,6.078,5.971,6.078c2.277,0,3.689-0.398,4.846-0.869l0.58,2.243
			c-1.125,0.506-3.076,1.122-5.861,1.122c-5.353,0-8.611-3.582-8.611-8.827c0-5.318,3.148-9.48,8.248-9.48
			c5.717,0,7.201,5.031,7.201,8.248c0,0.652-0.035,1.159-0.107,1.521L508.301,86.371z M517.599,84.092
			c0.035-1.992-0.834-5.176-4.379-5.176c-3.258,0-4.631,2.967-4.885,5.176H517.599z"/>
	</g>
	<g>
		<path fill="#FFFFFF" d="M192.099,111.1l-21.451,63.144h9.823l6.405-19.389h20.77l6.586,19.389h10.095L202.781,111.1H192.099z
			 M197.189,121.482c0.724,2.818,1.505,5.745,2.51,8.907l5.781,16.742h-16.453l5.701-16.851
			C195.597,127.549,196.42,124.597,197.189,121.482z"/>
		<path fill="#FFFFFF" d="M252.085,127.469c-6.507,0-11.719,2.51-15.188,7.285l-0.38-6.281h-8.738l0.052,0.804
			c0.256,3.912,0.365,8.219,0.365,14.402v48.67h9.551v-22.712c2.964,3.546,7.698,5.611,13.06,5.611
			c5.584,0,10.728-2.189,14.477-6.155c4.184-4.423,6.393-10.78,6.393-18.376c0-6.712-1.918-12.515-5.552-16.778
			C262.566,129.766,257.582,127.469,252.085,127.469z M249.704,135.378c8.516,0,12.328,7.889,12.328,15.706
			c0,10.085-4.863,16.348-12.69,16.348c-5.344,0-9.968-3.637-11.254-8.864c-0.221-0.811-0.341-1.884-0.341-3.094v-7.683
			c0-0.695,0.156-1.539,0.305-2.358c0.047-0.261,0.098-0.522,0.137-0.776C239.613,139.191,244.343,135.378,249.704,135.378z"/>
		<path fill="#FFFFFF" d="M301.28,127.469c-6.506,0-11.718,2.51-15.189,7.285l-0.38-6.281h-8.737l0.05,0.804
			c0.258,3.915,0.367,8.219,0.367,14.402v48.67h9.556v-22.712c2.962,3.546,7.693,5.611,13.054,5.611
			c5.586,0,10.729-2.189,14.483-6.155c4.18-4.423,6.389-10.78,6.389-18.376c0-6.712-1.92-12.515-5.553-16.778
			C311.761,129.766,306.777,127.469,301.28,127.469z M298.903,135.378c8.513,0,12.324,7.889,12.324,15.706
			c0,10.085-4.865,16.348-12.69,16.348c-5.342,0-9.969-3.637-11.255-8.864c-0.221-0.811-0.336-1.884-0.336-3.094v-7.683
			c0-0.699,0.151-1.546,0.305-2.366c0.047-0.257,0.094-0.514,0.138-0.768C288.808,139.191,293.538,135.378,298.903,135.378z"/>
		<path fill="#FFFFFF" d="M362.91,137.855c-8.916-3.452-11.773-6.168-11.773-11.186c0-4.224,3.357-8.483,10.859-8.483
			c6.189,0,10.15,2.151,11.215,2.814l0.811,0.5l2.695-7.973l-0.533-0.312c-1.6-0.938-6.16-3.122-13.912-3.122
			c-12.184,0-20.691,7.194-20.691,17.489c0,8.302,5.328,14.105,16.77,18.264c8.105,3.031,11.123,6.135,11.123,11.457
			c0,6.023-4.654,9.762-12.143,9.762c-4.877,0-9.896-1.423-13.77-3.904l-0.828-0.533l-2.564,8.158l0.471,0.311
			c3.605,2.409,10.395,4.151,16.145,4.151c16.42,0,22.242-10.013,22.242-18.587C379.025,147.823,374.357,142.372,362.91,137.855z"/>
		<path fill="#FFFFFF" d="M396.222,117.596l-9.371,2.94v7.937h-6.858v7.636h6.858v23.388c0,5.655,1.082,9.618,3.309,12.121
			c2.135,2.34,5.418,3.63,9.242,3.63c3.613,0,6.178-0.714,7.385-1.142l0.535-0.189l-0.457-7.65l-0.916,0.282
			c-1.207,0.37-2.449,0.514-4.443,0.514c-3.703,0-5.283-2.344-5.283-7.842V136.11h11.523v-7.636h-11.523V117.596z"/>
		<path fill="#FFFFFF" d="M431.422,127.469c-13.367,0-22.701,9.976-22.701,24.255c0,13.852,9.033,23.524,21.969,23.524h0.09
			c10.935,0,22.701-7.619,22.701-24.346c0-6.803-2.104-12.646-6.088-16.898C443.385,129.731,437.861,127.469,431.422,127.469z
			 M431.146,135.011c8.596,0,12.506,8.378,12.506,16.167c0,9.577-5.338,16.528-12.688,16.528h-0.092
			c-7.246,0-12.506-6.835-12.506-16.253C418.367,143.27,422.318,135.011,431.146,135.011z"/>
		<path fill="#FFFFFF" d="M482.742,127.911l-0.572-0.145c-0.842-0.21-1.529-0.297-2.377-0.297c-4.998,0-9.483,2.942-11.979,7.69
			l-0.281-6.686h-8.572l0.055,0.804c0.254,3.782,0.361,8.028,0.361,13.758l-0.09,31.209h9.555v-24.349
			c0-1.325,0.092-2.579,0.262-3.702c1.08-5.851,5.025-9.629,10.053-9.629c0.979,0,1.748,0.08,2.565,0.16l1.021,0.106V127.911z"/>
		<path fill="#FFFFFF" d="M504.222,127.379c-12.719,0-21.604,10.161-21.604,24.711c0,14.012,8.838,23.067,22.516,23.067
			c7.193,0,12.197-1.579,15.127-2.901l0.574-0.26l-1.834-7.118l-0.799,0.322c-2.603,1.058-6.062,2.141-11.971,2.141
			c-4.15,0-13.721-1.369-14.309-13.852l30.838,0.091l0.123-0.609c0.195-0.97,0.289-2.278,0.289-3.988
			C523.174,139.017,518.211,127.379,504.222,127.379z M503.584,134.646c2.91,0,5.272,0.901,7.014,2.676
			c2.748,2.796,3.23,6.915,3.289,8.893h-21.785C492.986,140.698,496.437,134.646,503.584,134.646z"/>
	</g>
</g>
</svg>
